<svg id="Layer_1" data-name="Layer 1" xmlns="http://www.w3.org/2000/svg" viewBox="0 0 465.11 660.57"><path d="M497.88,231.46c2.84-7.22,5.74-14.39,11.87-19.62,8-6.84,18.83-5.94,25.64,2.11,5.49,6.48,8,14.11,8.19,22.44.14,5.17.84,10.47-1.45,15.47a6.82,6.82,0,0,0,0,2.6c2.07.27,2.17-1.51,2.83-2.51,5.58-8.52,13.64-10.31,21.75-4.18,11.83,8.94,14.87,21.6,14.12,35.65,0,.87-.24,1.73-.31,2.6a1.81,1.81,0,0,0,.22.68c.77.35,1.11-.33,1.56-.67,6.17-4.55,12.35-4.24,17.94,1.06,6.38,6,8.55,14.16,11,22.19,3.06,10,1.91,19.66-2.32,29.06-7.75,17.23-6.06,35-3.16,52.89,1.52,9.35,2.4,18.77,3.31,28.21,2.28,23.59,1.34,47.14.56,70.72-.22,6.56-1.91,13-2.16,19.52-.64,16.55-4.27,32.65-6.93,48.89-1.73,10.56-4.79,20.86-7,31.31-5.68,26.8-10.92,53.71-13.19,81.09-.85,10.21-1.69,20.46-3.46,30.53-1.47,8.33-2.36,16.75-3,25.09-1.37,16.79-4.89,32.87-13,47.62-10.71,19.52-24.77,36.09-46.72,43.21-23.32,7.57-46.56,7.17-68.6-5-21.39-11.81-31.1-31.12-34-54.49-2-15.95-1.07-31.95-.25-47.93,1.42-27.7,3.35-55.37,3-83.15-.43-37.74-8.3-73.78-22.85-108.56-7.34-17.53-16.56-34.16-23.95-51.65-8.16-19.31-13-39.29-13.39-60.33-.38-19.32,1.7-38.43,4.12-57.53,4.12-32.5,2.4-64.5-7-96.09-5.55-18.56-6.19-37.47.51-56,4.57-12.66,11.58-23.6,24.33-29.57,9-4.23,18.54-5.46,28.14-2.77,12.48,3.5,20.38,11.94,24.86,24.08A86.24,86.24,0,0,1,431,244c-2.23,7.6-5.49,14.88-8,22.42-2.41,7.36-3.37,15-1.41,22.62,2.5,9.75,8.84,11.65,16.54,5.08,8.27-7,11.67-16.29,12.12-26.83a79,79,0,0,0-1.8-20.11A190.12,190.12,0,0,1,444.82,225c-1.53-16.18,3.85-30.13,15.18-41.5,9.46-9.5,24.93-8.41,32.48,1.54,6.7,8.85,8.7,18.77,7.29,29.59-.65,5-2.28,9.69-3.44,14.53-.39.29-.94.49-1.15.88-6.26,11.42-10.79,23.35-10.6,36.62.13,8.4.64,16.76,5,24.3,1,1.74,2.25,3.6,4.49,3.49s3.61-2,4.6-4a18.13,18.13,0,0,0,.82-2.09,40,40,0,0,0,0-27.55C496,251.13,494.85,241.44,497.88,231.46Zm-132.5-35.37.77-.32h.05A45.42,45.42,0,0,1,378.87,185c11.86-7.29,25.64-.79,30.57,10a75,75,0,0,1,6.5,39.79C414,252.28,402,266.36,382.36,264.38c-1.13-.12-2.28,0-4.36,0,15.33,7.35,28.41,4.67,37.37-7.05a67.84,67.84,0,0,0,4.31-6.42c15.14-25.51,3.32-57.78-13-71.33-5.48-4.56-12.14-6.65-19.19-4.15-10.75,3.8-18.72,11.16-24.68,20.77a40,40,0,0,0-8.5,16.08c-4.25,14.7-2.54,29.07,3.3,42.84,7.55,17.81,11.9,36,9.77,55.44-.44,4-.57,8.08-.92,13.23,2.74-4.23,4.35-7.83,6.95-10.88,8.92-10.45,19.88-15.22,33.57-12.9a50.35,50.35,0,0,0,14.54.19c-1.76-.75-3.07-1.36-4.42-1.87-6.44-2.42-9.11-7.51-9.55-13.93-.47-6.8,1.06-13.14,5.37-18.62,6.9-7.2,13.69-14.72,16.25-24.54a83.91,83.91,0,0,0-4.06-55.7c-4.94-11.42-14-18.43-26.54-19.85a37.24,37.24,0,0,0-27.27,7.11C356,184.29,351.58,201,350.21,218.92c2.1-7.87,4.31-15.65,9.41-22.34,5.85-7.7,12.12-14.88,20.34-20.19,10.61-6.84,22.33-4.64,30.05,3.21C426,195.85,432,215.47,427.4,238a1.09,1.09,0,0,0-.52,1.59c-2.85,9.51-8.14,17.54-14.9,24.69-5.1,3.83-10.69,6.33-17.19,6.34-13.14,0-23.44-5.64-31.54-15.76-.88-1.09-.48-1.75.26-2.52,2.37,1.75,4.06,4.2,6.68,5.77,13.63,8.17,30.14,4.79,38.18-8.1a37.82,37.82,0,0,0,5.6-19.95,82,82,0,0,0-5.45-31.26c-6.32-16-20.36-19.46-33.45-8.81-10.45,8.5-17.75,19.75-17.36,34.24.25,9.41.27,18.92,5.74,27.25-1.63.26-2.47-.25-3.34-1.9a40.55,40.55,0,0,1-3.73-12c-2.4-13.76-1.06-26.8,7.5-38.43.46-.62,1.4-1.2.83-2.26l-.08-.14ZM432.87,504.8c.19.44.53.81,1,.53.7-.44.27-.92-.1-1.35l-1.24-1.14c-.29-.56-.74-1.52-1.28-1.07-.7.57.15,1.16.7,1.58ZM421.23,260.65a19.14,19.14,0,0,0-2.9,6.58,22.13,22.13,0,0,0-1.05,18.3c.07-6.22.44-12.39,2.47-18.32a14.82,14.82,0,0,0,1.44-6.61l.27-.2Zm27.58-35.3-1.32-9a17.12,17.12,0,0,0,.42,9.81c.22.87.43,1.74.65,2.61,1.47,4.32,2.91,8.65,4.41,13a35.59,35.59,0,0,1,1.88,18.22c-.81,4.53-1.77,9-2.53,13.58a37.85,37.85,0,0,1-5,13.92c-.16.24-.51.57-.44.72.26.61.66.19,1,0a29.43,29.43,0,0,1,6.28-2.2c10.09-1.8,19.51.15,28.45,4.91l.6-.14-.24-.21-.39.47c.85-.91.08-1.57-.36-2.26-3.57-5.66-4.64-12.08-5.58-18.53a6.74,6.74,0,0,0-.54-3.43,28,28,0,0,0,.3-4.46c-.9-10.31,2.86-18.6,10.23-25.73,6.21-6,9.24-13.67,10-22.35,1.26-15.21-9.6-27.2-24.33-26.58-4.65.36-9.12,1.21-12.82,4.27,2.06-.4,4-1.26,6-1.72s4.41-.62,6.62-.91c.45,3-2,1.95-3.26,2.14-8.77,1.38-17.37,8.94-18.57,16.75s-.75,16,3.1,23a74.34,74.34,0,0,1,9,35.44,14.65,14.65,0,0,0,1.21,6.19c1.72,3.56,5.11,4.11,7.87,1.3,1.78-1.81,2.61-4.2,3.87-6.32,1.31.45.64,1.57.81,2.41a47.35,47.35,0,0,1-3,4.71,6.89,6.89,0,0,1-11.53-1,13.2,13.2,0,0,1-1.46-5.37c-.36-4.21-.7-8.42-1-12.64-.61-10.23-6.55-18.56-9.8-27.85Zm35.28,60.25c-3.68-14.86-2.27-29.56,2.35-45a19.9,19.9,0,0,0-7.57,14.86c-.22,10.24-.77,20.56,4,30.16.13.79.25,1.94,1.16,1.79S484.4,286.24,484.09,285.6ZM356.33,262.1a195.46,195.46,0,0,1,4.79,23.09,197.18,197.18,0,0,1,1.88,23.9c.13,7.62,0,15.25,0,22.88,2.58-24,5.26-48-5.62-70.76-.38-1.62-.54-3.39-3.11-4.79Zm147.75,21a32.81,32.81,0,0,0,0-10.42c-.27,3.44-.55,6.89-.82,10.34-1,5.59-2.69,10.86-8.2,15.08,15.52,2.55,25.58,12.29,35.41,22.54-3.38-7.74-6.78-15.64-15.11-18.9C506.46,298.32,503,292.27,504.08,283.15ZM542.44,295c4.2,10.22,5.37,20.49.27,30.75-.68,1.36-.42,1.75.69,2.56,5.55,4,10.93,8.29,16.51,12.26,2,1.44,3.86,3.33,6.71,4.22-.22-.76-.3-1.09-.41-1.4-2-5.49-6.17-8.82-10.88-11.83-7.69-4.91-9.28-8.44-6.2-16.78s1-14.78-5.41-20.35a6.86,6.86,0,0,0-3.63-3.93Q541.28,292.74,542.44,295Zm58.74,42.26c4-1.44,5.38-5.18,6.56-8.56,4.84-13.9.77-26.35-7.37-37.7-5.65-7.88-14.14-7.87-19.37.31-12.27,19.17-10.65,33.23,4,48.47,5.05,5.24,12.76,3.83,16.21-2.59Zm-34.45-42c-6.3.2-9.43-1.83-12.08-7.9-3-6.86-2.53-13.88-.84-20.93a19.59,19.59,0,0,1,4.94-9.49c3-3,6.48-2.23,10-1.92a9.47,9.47,0,0,0-10.79.08c-11.55,7.2-14.07,28.06-4.69,39,4,4.71,8,5.44,13.54,2.51,2.16-.87,4.53-1.2,6.22-3.13,7.22-8.27,6.48-26.37-1.44-33.91-4.83-4.59-10.83-3.61-13.73,2.4a31.22,31.22,0,0,0-2.72,19.32c1.15,6.39,3.56,12.09,11.57,12.45C568.11,293.8,567.11,294.72,566.73,295.24ZM513.51,263.6c-7.29-8.59-8.37-18-3.88-28.24.41-.94.66-2.51,2.2-1.9,1.92.77.32,1.8-.11,2.63a22.56,22.56,0,0,0-1.59,16.75c1.41,5.27,4.08,9.83,10.2,10.68s11.19-1.33,14.55-6.48c5.71-8.76,7.8-17.92,1.86-27.56-4.47-7.26-14.89-11-22.9-5.71-12.73,8.47-13.8,29.77-2,40.69,4.35,3.69,12,4.11,17.32.63C523.52,266,518.31,266.53,513.51,263.6Zm-114.18,156c3.27,1.58,6.35,3.59,9.92,4.51,4.27,2,8.52,4.12,12.82,6.1,23.61,10.87,45,24.83,62.13,44.69,17.33,20.05,29.53,43.17,40.54,67,5,10.93,10.18,21.81,15.62,33.45a28.18,28.18,0,0,0,0-4.61c-2.57-13.11-4.36-26.36-7.47-39.37-6.26-26.23-17.64-49.75-36.28-69.56-21.45-22.81-48.09-35.54-78.57-41l-2-.74a2,2,0,0,1-.14-1.84c12,2.34,24.06,4.78,35.37,9.55,31.89,13.46,55.23,36.13,70.9,66.85,9.41,18.46,14.1,38.33,17.58,58.58,2.18,12.67,3.93,25.47,7.14,37.88,3.66,14.14,7.13,28.25,9.39,42.68.91,5.83,1.2,11.8,3.11,17.46l2,10.74c1.76,16.23,4.18,32.38,5.27,48.71a2.78,2.78,0,0,0,.82-1.41c5.32-19.27,8.1-39.07,11.85-58.66,3.92-20.44,7.5-40.94,11.93-61.29,1.31-6,3.82-11.88,3.2-18.25,2.57-2.3,1.64-5.54,2.34-8.34-1.33,2.64-2.57,5.31-2.31,8.37-2.56-.06-1.8,2.32-2.26,3.49-7.81,19.74-14.75,39.74-18.34,60.78a172.55,172.55,0,0,0-2.78,29c0,.86.54,2.34-1,2.39s-1.24-1.32-1.25-2.3c0-2.49,0-5,0-7.49-.15-7.77,1.74-15.34,2.42-23,1.21-1.07.42-2.48.64-3.72-.25-1.85,1.18-3.16,1.54-4.86a249.25,249.25,0,0,1,11.4-38c8.56-22.29,16.86-44.54,19.35-68.63,3.46-33.39,5.1-66.79,2.25-100.27-2.29-26.9-14.35-48.59-37.26-63.08-17-10.76-33.31-22.46-49.79-33.93-24.71-17.2-52.39-23.6-82.1-21-9.9.88-19.78,2.51-29.71,3.5-6.5.65-12.82,1.87-18.71,4.89-10.66,5.47-15.85,15.2-20,25.67-6.6,16.6-7.42,34-7.14,51.6a120.39,120.39,0,0,0,6.85,37.83c6.06,17.41,18.3,29.43,34.18,38.12,11.89,6.51,23.68,13.23,34.09,22,18.24,15.39,32.36,33.93,41.45,56.08,12.6,30.72,10.61,60.47-6.5,89.05-4.3,7.17-9,14.11-13.18,21.35a120.68,120.68,0,0,0-15.06,42.09c-.2,1.26-.09,3.47-1.75,3.24-2-.28-.67-2.24-.51-3.38a122.57,122.57,0,0,1,10.28-33.55c5.63-12.34,13.83-23.14,20.5-34.86,12.38-21.75,15-45,8.79-68.94-6.85-26.38-21.67-48.07-41.77-66.22-12-10.87-26.25-18.54-40.19-26.58-17.25-9.95-28.85-24.38-34.5-43.48-4.5-15.26-5.77-30.89-4.82-46.74L360,364a16.35,16.35,0,0,0-1.68,8.23c-1.06,16.22-3.06,32.46.09,48.67A54.85,54.85,0,0,0,364,436.27c7.21,13.45,18.6,22.66,30.9,31a212.87,212.87,0,0,1,47.29,43.2c16.23,20.2,26.16,43,27.57,69.1.46,8.62.17,17.26-3,25.5A28,28,0,0,1,465,608.7a1.27,1.27,0,0,1-1.59.67c-1.1-.45-.5-1.22-.2-1.84a31.85,31.85,0,0,0,2.59-6.61c2.85-12.42,2.19-24.82-.37-37.17-4.44-21.38-14.22-40.1-28.63-56.44-.7-.8-1.44-2.74-2.75-1.75s.34,2.22.88,3.2A90.56,90.56,0,0,1,442.59,528a99.23,99.23,0,0,1,3,39c-2.53,19.89-4.81,39.82-8.22,59.61-1.48,8.56-2,17.36-2.72,26.08-1.76,20.91-4.53,41.73-6.37,62.63a98.2,98.2,0,0,0,11.42,55.33,60.83,60.83,0,0,0,14.66,18.75c2.94,3.12,6.66,5.15,10.26,7.37,1.95,1.21,4.4,1.84,5.5,4.2a55.06,55.06,0,0,1-24.27-17.31c-13.91-16.82-19.3-36.72-20.13-58-.57-14.67,2.22-29.12,3.72-43.65,1.6-15.51,2.59-31.09,4.71-46.53,3.18-23.25,6.86-46.46,9.18-69.81,3.08-31.1-6.4-58.13-28.75-80.31C408.13,479,400.6,474,393.27,468.83c-11.64-8.27-23-16.86-30.11-29.73-.3-.55-.78-1-1.6-.5a106.32,106.32,0,0,0,9.05,20.24c7.2,12.41,16.65,23.1,26.17,33.65,21.08,23.32,33.61,50.29,36,81.73a173.22,173.22,0,0,1-2,43.32c-.2,1.15,0,3.16-2.08,2.93-1.5-.16-1.12-1.71-1.23-2.76C424.19,586,415.3,556,399.53,528.11c-.81-1.41-1.2-3.11-3.34-4.72.85,2.3,1.34,3.81,2,5.27,7.19,17,11.61,34.9,14.81,53,5.84,33.08,4.41,66.46,2.69,99.81-1.06,20.83-3.25,41.63-2.38,62.52.61,14.51,2,28.86,9.28,42,4.7,8.46,10.69,15.84,18.55,21.08,15.51,10.35,33,13.64,51.5,12.15,11.43-.92,22.64-3.15,32.43-9.39,22.36-14.24,36-34.82,42.48-60.31,4.64-18.24,5.38-37,7.38-55.6a19.9,19.9,0,0,0,.41-9,35.09,35.09,0,0,0-1.81,9c-3.56,15.09-8.13,29.94-10,45.42-.5,4.1-1.17,8.36-3.41,12.07-2.1-3.62.74-7.2.09-10.8.83-.37.88-1.19,1-1.89,1.6-11.08,3.6-22,2.57-33.42-2.06-22.8-5.66-45.35-9.36-67.9-2.54-15.54-4.51-31.26-10.28-46a653.21,653.21,0,0,0-40.45-85.55C487,476.7,464.06,453.65,433.7,438.57,421.85,432.69,409.91,427,398,421.23Zm-30.54,43.53c8.5,18.78,16.81,37.38,27.53,54.83,15.92,25.91,26.74,53.78,31.37,83.94.25,1.6.43,3.22.65,4.82.19,1.44.39,2.88.59,4.32a157.83,157.83,0,0,0,.16-48.51c-3.7-23.82-13.79-44.63-29.28-63-9.64-11.44-19.84-22.44-28.23-34.9C371.05,463.86,370.6,462.83,368.79,463.16Zm68.55-165.45h12.18c29.38.08,55.46,9.49,78.86,27.16,10.42,7.88,20.91,15.71,32.26,22.33,11.79,6.87,22.94,14.65,30.94,26.09a4.5,4.5,0,0,0,1.11.86c.09-.44.25-.73.17-.88-4.75-8.53-10.92-15.79-19.23-21-9.6-6.05-19.15-12.16-27.93-19.41-1.9-1.57-4-3.27-6.31-3.87-5.09-1.33-8.83-4.25-12.34-7.95-6.52-6.87-12.82-14.35-22.11-17.45A200.16,200.16,0,0,0,452.29,293C447.07,292.75,442.63,294.85,437.34,297.71ZM539,228.3c-.81-8.42-6.93-16.3-13.55-18.16s-13.12.88-18.2,8.14c-8.89,12.74-11,26.47-5.46,41.22,2.68,7.21,7.64,11,15.3,11.7,7.11.62,9.15,3,9.2,10.05a39.74,39.74,0,0,1-.31,6,52.63,52.63,0,0,0,1,19.33c.23,1,.24,2,1.64,2.49-1.8-14.33-1.84-28.42,3.59-42.87-9.83,5.43-19,4-24.73-3-7.12-8.8-8.29-24-2.16-33.49,3.9-6.06,9-10.72,17-10.62C529.18,219.13,534.35,222.41,539,228.3Zm-.6,35.44c-2.2.82-2.56,2.5-3.22,3.94-4.37,9.52-5.58,19.61-5,29.93.43,7.47,1.59,14.89,4.47,21.87.87,2.12,2.16,4.93,4.72,4.61,2.22-.27,3-3,3.56-5.27a22.62,22.62,0,0,0,.52-2.94c.56-6,.2-12.13-2.32-17.62A49.06,49.06,0,0,1,538.38,263.74Zm-14.57,41.83c-.7-6.45-1.24-12.74-.23-19.1a34.1,34.1,0,0,0,.32-6.7,6.38,6.38,0,0,0-5.22-6.42c-3.49-.9-7.18-.9-10.56-2.32-1.2-.5-1.43.16-1.45,1.25-.09,5.35-.42,10.71-.36,16.05a10.5,10.5,0,0,0,6.25,9.88C516.61,300.14,520.56,302.12,523.81,305.57Zm45.7-6.94c-1.48.46-2.16.66-2.83.88-6.81,2.18-11.8.52-16.1-5.18a24.4,24.4,0,0,1-3.83-7.25,31.05,31.05,0,0,1,3-26.3c3.87-6.57,9.28-10.41,17.67-9.22-7.79-7.22-15.91-6.18-21,2.33a48.11,48.11,0,0,0-3.92,7.66c-4,10.76-4.28,21.24,3,30.94,2.47,3.3,4.88,6.63,7.32,9.95a3.9,3.9,0,0,0,1.93,1.67C558.51,305.37,566.31,302.82,569.51,298.63Zm.87,3.5c-5.24,2.92-10.23,5.57-16.33,3.64-1.23-.39-.91.78-1.06,1.39a68.7,68.7,0,0,1-3.08,10.65,7.31,7.31,0,0,0,1.52,7.92c3.22,3.49,7.35,5.68,12,9C561.11,322.41,565.71,312.38,570.38,302.13Zm3.93,27.43c6.18,14.51,16.93,26,25.14,39.25-1.73-10.93-2.64-21.55,6.28-30.83a3.53,3.53,0,0,0-3,1.68c-7.64,7.56-13.85,7.47-21-.55C579.13,336.09,576.8,332.75,574.31,329.56Zm-79.87-133c1.46-6.13-7-15.47-15.1-16.95-8.56-1.57-20,4.21-21.78,11.33C472.47,180.64,487.39,186.09,494.44,196.57ZM577.38,341.2c-.72,9.61-.74,9.63,5.29,15.29a75.94,75.94,0,0,1,8.51,9.4c5.1,6.72,7.66,14.58,10.55,22.3C601.42,368.76,587.19,356.56,577.38,341.2ZM404.92,302.41c-1.59-1.38-3.14-1.14-4.58-1.07q-19.41,1-28.6,18.13A160.9,160.9,0,0,0,363,340.11a21.7,21.7,0,0,0-1.38,10.28,179.36,179.36,0,0,1,6.34-18.69C374.54,315,385.51,303.7,404.92,302.41Zm163.82,12.44c-6.46,12-3.27,28.62,6.68,34.14C573.31,337.34,566.49,326.94,568.74,314.85ZM486.08,296c-6.19-8.22-28.92-11.28-38.19-5.42A160.25,160.25,0,0,1,486.08,296Zm-65.52,1.43c-6.51-8.87-8.84-18.12-5.49-29.27C407.14,276,407.67,294.18,420.56,297.39Zm31.61-43.67c.84-4.94-.36-10.84-2.88-14.07Zm149.85,93q-1.07,5.52-2.12,11.06L601,358C602,354.34,602.93,350.66,602,346.76Zm-240.63,4c-1.35,1.43-1,2.83-.63,5.19C361.37,353.76,362.14,352.52,361.39,350.78Zm231.73,24.06.22.17,0-.27Z" transform="translate(-254.97 -162.39)" style="fill:#fff;stroke:#fff;stroke-miterlimit:10"/><path d="M654.05,280.18c-15,1.24-24.72-11.84-24.54-23.64.21-13.47,10-23.87,24.67-24.3,12.49-.36,24.16,11.47,24.48,24.25C679,269.66,665.76,281.49,654.05,280.18Zm.21-45.21c-12.6.16-21.76,9.95-21.6,23.1.13,10.61,10.37,20.25,21.62,19.93a22,22,0,0,0,21.54-21.77C675.83,245.4,665,234.23,654.26,235Z" transform="translate(-254.97 -162.39)" style="fill:#d7917d"/><path d="M309.73,694.78c-1.34-10.28,10.15-22,22.36-22,12,0,22.65,11.86,22.5,21.77a23.46,23.46,0,0,1-22.69,23C320,717.81,308.85,706.44,309.73,694.78Zm22.72-19c-11.43-1.14-20.07,9.74-20,17.84,0,11.61,8.12,20.62,19.25,20.88,10.38.23,19.4-8.52,20.1-18.52S343.07,674.88,332.45,675.82Z" transform="translate(-254.97 -162.39)" style="fill:#d7917d"/><path d="M315.5,615.09c-10.37.7-15.29-7.27-15.47-15-.22-9.51,5.57-15.79,14.63-15.91,9.79-.14,15.1,7.31,15.45,15.61A14.45,14.45,0,0,1,315.5,615.09Zm-6.74-26c.49,0,1,0,1.49,0,10.2-.4,14.66,4,14.47,14.17,0,1.73-.72,3.25-1.23,5.21,7.66-6.27,2.21-19.28-5.16-21-3.39-.79-6.87-1.73-9.55,1.68l-.14.28ZM323,600.91c0-4.35-5.17-9.81-9.35-9.79-5.18,0-10,5-10.11,10.48-.1,4.9,4.77,9.91,9.63,9.94C318.79,611.57,322.35,606.48,323,600.91Z" transform="translate(-254.97 -162.39)" style="fill:#d7917d"/><path d="M691.41,482.48c-11-.15-19.44-9.15-19.29-20.58.14-10.58,9.45-19.61,19.9-19.31,10.69.3,19.83,9.15,19.76,19.12C711.7,473.76,703,482.65,691.41,482.48Zm-16.78-20.37c0,10.37,7.54,18.25,17.38,18.18s17.28-7.91,17.22-18-7.47-17.24-17.75-17.3C682.38,445,674.63,452.83,674.63,462.11Z" transform="translate(-254.97 -162.39)" style="fill:#60a6c9"/><path d="M294.46,475.06c.68,8.41-6.86,15.05-13.82,14.58-9.81-.67-14.4-4.65-15.17-17.85-.26-4.42,8.59-11,14.36-11.51C288,459.58,295.31,468.14,294.46,475.06Zm-2.75-.1a11.68,11.68,0,0,0-11.81-11.84c-5.54,0-11.59,5.61-11.55,10.71.06,7.14,5.41,13.18,11.7,13.21A11.88,11.88,0,0,0,291.71,475Z" transform="translate(-254.97 -162.39)" style="fill:#d7917d"/><path d="M283.69,344.21c-.09,8-6.56,14.59-14.18,14.32-8.82-.32-14.59-6-14.54-14.9a14.11,14.11,0,0,1,14.63-13.81A14.33,14.33,0,0,1,283.69,344.21Zm-11.62-11.58-.05,0c-4.46-1.65-8,.08-11.23,3-4.84,6-4.42,13.55,1,17.87a12,12,0,0,0,16.75-1.6c4.38-5.46,3.17-13.25-2.74-17.79A4.36,4.36,0,0,0,272.07,332.63Z" transform="translate(-254.97 -162.39)" style="fill:#60a6c9"/><path d="M708.8,362.66c-6.37.34-10.83-3.79-11.27-9.89-.52-7.2,4.69-12.33,11.6-12.25,5.73.07,10.88,5.44,11,11.42C720.16,358.45,715.77,362.62,708.8,362.66Zm-8.71-10.84c-.09,4.82,3.91,9.11,8.49,9.13a9.27,9.27,0,0,0,9-9.08,8.57,8.57,0,0,0-8.57-8.87C703.73,343,700.19,346.43,700.09,351.82Z" transform="translate(-254.97 -162.39)" style="fill:#60a6c9"/><path d="M692,594.21c-3.36-8.15-.12-15,7.8-16.58,3-.6,5.4,1.11,8.08,1.89,3.79,1.11,3,4.29,4.13,6.56.08,8.26-4,12.84-11.11,12.85-2.79,0-4.87-1.75-7.36-2.45h0Zm17.34-5.64c0-4.84-3.56-8.6-8-8.51a8.38,8.38,0,0,0-8.09,8.52,8,8,0,1,0,16.08,0Z" transform="translate(-254.97 -162.39)" style="fill:#d7917d"/><path d="M646.47,539.11a3.9,3.9,0,0,1,4.14-4.12c2.7,0,4.53,1.42,4.5,4.31,0,2.57-1.46,4.35-4.1,4.35S646.66,542.11,646.47,539.11Zm4.27-2.48c-2.09.16-2.46,2-2.56,3.2s1.24,2.25,2.79,2.1a2.38,2.38,0,0,0,2.28-2.79A2.43,2.43,0,0,0,650.74,536.63Z" transform="translate(-254.97 -162.39)" style="fill:#fff"/><path d="M699.08,766.63c-4.18-1.88-5.44.65-6.2,3.82-1.7-1.29-.77-2.52-.56-3.62.46-2.4-3.23-1.4-2.78-3.18.59-2.32,3,1.26,3.92-.79.41-.89.55-1.91.92-2.82a.83.83,0,0,1,1.18-.54c.28.15.66.69.59.79C694,763.64,696.64,764.83,699.08,766.63Z" transform="translate(-254.97 -162.39)" style="fill:#fff"/><path d="M325.09,387.05c-2.54.41-5.27.36-4.61,4,0,.19-.46.65-.74.67a.88.88,0,0,1-1-.9c.26-2.48-.66-3.94-4-3.87,3.66-.53,5.05-2.08,4.44-5.17,0-.19.4-.64.65-.68a.82.82,0,0,1,1,.89C319.81,385.61,322.55,386.13,325.09,387.05Z" transform="translate(-254.97 -162.39)" style="fill:#fff"/><path d="M296,259.13l-.18-.13-.22.05-1.11-1.3c-.71-.61-1.18-2.08-.07-1.65,2.87,1.11,4.8-.11,7-1.86a6.59,6.59,0,0,0,.09,6.4c.36.65.79,1.74-.25,2.33s-1.53-.57-2.32-.81C298,261.18,297.92,259.26,296,259.13Z" transform="translate(-254.97 -162.39)" style="fill:#60a6c9"/><path d="M285.2,545.89c.39-2.47,1-4.59,3.83-4.23,2.22.28,3.66,1.7,3.41,4.05-.21,2.06-1.07,3.94-3.69,3.71C286.52,549.23,285,548.17,285.2,545.89Zm5.44-.26c-.3-1.09-.66-2.21-2.1-2.1s-1.47,1.16-1.47,2.19c0,1.26.46,2.26,1.94,2.07C290.17,547.64,290.62,546.77,290.64,545.63Z" transform="translate(-254.97 -162.39)" style="fill:#60a6c9"/><path d="M641.13,345.94c1.45.78,2.79,1,3.28-1.22.21-.9.54-.49,1-.14.59.49,1.24,1,.77,1.84-.87,1.64-1.76,3.27-2.73,4.85a.87.87,0,0,1-1.55-.08c-.79-1.28-2.67-2-2.19-4C639.84,346.43,639.93,345.7,641.13,345.94Z" transform="translate(-254.97 -162.39)" style="fill:#60a6c9"/><path d="M637.91,397.19c-2.21.74-4.54,1-3.65,4,.16.53-.3.92-.86.95a.87.87,0,0,1-.93-.93c.76-3.33-2.08-2.31-4.28-3,2.59-1.31,5.09-2.16,3.83-5.65C634.09,394.45,633.83,398.3,637.91,397.19Z" transform="translate(-254.97 -162.39)" style="fill:#fff"/><path d="M293.3,764.75c-.2,1.42-.77,3.33-2.42,3.44-1.29.09-1.6-2-1.95-3.21-.47-1.65.93-2.08,2.2-2.24S293.34,763,293.3,764.75Z" transform="translate(-254.97 -162.39)" style="fill:#60a6c9"/><path d="M345.31,532.56a2.17,2.17,0,0,1,2.11,2.35c-.07,1.5-.87,2.62-2.55,2.48a2.19,2.19,0,0,1-2.07-2.55A2.24,2.24,0,0,1,345.31,532.56Z" transform="translate(-254.97 -162.39)" style="fill:#fff"/><path d="M339.72,772.56c-1.25-.19-2.63-.39-2.57-1.74a2.6,2.6,0,0,1,2.43-2.77,2.29,2.29,0,0,1,2.45,2.28C342.22,772,340.77,772.18,339.72,772.56Z" transform="translate(-254.97 -162.39)" style="fill:#60a6c9"/><path d="M699.34,669.09c-.33,1.27-1.08,2.09-2.32,2-1.5,0-1.61-1.2-1.55-2.39.06-1.41,1-1.47,2.07-1.43A1.64,1.64,0,0,1,699.34,669.09Z" transform="translate(-254.97 -162.39)" style="fill:#60a6c9"/><path d="M595.94,215.71c0,1.87-.58,2.89-2.3,2.95-1,0-2.08,0-2.1-1.41a2.81,2.81,0,0,1,2.64-3C595.4,214.06,596,214.76,595.94,215.71Z" transform="translate(-254.97 -162.39)" style="fill:#f2f3f3"/><path d="M630.12,188.65c-1.19,0-1.86-.59-1.81-1.81s.49-2.22,1.89-2.28,1.66.83,1.76,1.92C632.08,187.82,631.51,188.59,630.12,188.65Z" transform="translate(-254.97 -162.39)" style="fill:#60a6c9"/><path d="M702.27,685c0,1,0,2-1.27,1.86-1.48-.12-1.62-1.39-1.69-2.46a1.51,1.51,0,0,1,1.47-1.78C702.5,682.59,702,684.08,702.27,685Z" transform="translate(-254.97 -162.39)" style="fill:#60a6c9"/><path d="M637,724.42c1,.07,2,.25,2.11,1.57a1.35,1.35,0,0,1-1.51,1.64c-1.23,0-2.21-.52-2.33-1.89S636.08,724.39,637,724.42Z" transform="translate(-254.97 -162.39)" style="fill:#60a6c9"/><path d="M296,259.13c1.89.13,1.94,2.05,3,3-2.48.13-2.73,2.6-4.1,4C292.1,263.21,296.32,261.55,296,259.13Z" transform="translate(-254.97 -162.39)" style="fill:#f2f3f3"/><path d="M633.11,722c0,1.17-.56,1.69-1.6,1.6s-2.08-.27-2-1.63c0-.85.1-1.88,1.29-1.92S632.68,721,633.11,722Z" transform="translate(-254.97 -162.39)" style="fill:#60a6c9"/><path d="M661.27,730.2c-.11,1-.29,2-1.65,2-1.15,0-2-.55-1.93-1.73,0-1.54,1.36-1,2.24-1.13C660.6,729.24,661.56,728.8,661.27,730.2Z" transform="translate(-254.97 -162.39)" style="fill:#60a6c9"/><path d="M294.52,257.75l1.11,1.3C294.82,259,294.57,258.46,294.52,257.75Z" transform="translate(-254.97 -162.39)" style="fill:#f2f3f3"/><path d="M524.57,790c-3.3,1.4-5.13,4.56-8,6.56-11.43,8.07-23.93,10.28-37.48,7.38-3.12-.67-6.38-.88-9.05-2.92-1.1-2.36-3.55-3-5.5-4.2-3.6-2.22-7.32-4.25-10.27-7.37,1.53-.17,1-1.07.52-1.73a92.48,92.48,0,0,1-10.34-18.57c-4.78-11.67-5.52-23.9-4.9-36.28.34-6.86,1.5-13.52,4.91-19.67,4.87-8.79,11.88-14.78,22-16,13.89-1.65,24.21,4.48,31.93,15.77,10.95,16,13.36,33.95,11.94,52.71-.87,11.52-4.94,21.74-13.6,29.76a22.45,22.45,0,0,1-8.52,5.12c-.78.25-2,.13-1.69,1.41.27,1.1,1.44.84,2.24.77,2.73-.21,5.46-.53,8.19-.81a18,18,0,0,0,9.84-2.81.85.85,0,0,0,.66-.12,4,4,0,0,0,2.95-1.43c9.57-5.22,15.85-13.48,20.52-23,9.2-18.74,10.9-38.62,8.43-59.09-2.84-23.46-9.21-46.18-14.31-69.17-2.51-11.32-4.63-22.73-7.1-34a131.35,131.35,0,0,0-6.37-20.61c-.59-1.49-1.05-4.23-3.38-3.79-1.92.36-1.73,2.83-2,4.48-.52,3.48,0,7,.31,10.46,1.21,15.41,2.34,30.82,5.21,46.07a348.93,348.93,0,0,0,11.28,42.26c5.12,15.89,9,31.94,7.61,48.85-1.42,17.94-5.93,34.63-18.86,48-2.33,2.42-4.92,4.58-7.38,6.86l-.28.11v.28a1.41,1.41,0,0,0-.49.48c-.28-.08-.45,0-.51.34l-1,.34L500,796c1.61-2.73,4.24-4.54,6.55-6.48,8.75-7.32,13.94-16.84,17.36-27.38,6-18.57,5.82-37.32.54-56-3.82-13.54-8.07-27-11.78-40.53-3.22-11.79-5.06-23.88-6.53-36-1.44-11.9-2.2-23.85-2.58-35.83a15.86,15.86,0,0,1,0-2.58c.38-2.83,1.14-5.65,4.32-6.33,3.43-.73,4.51,2.32,5.53,4.58A118.4,118.4,0,0,1,521,613.25c4.65,21.81,9.28,43.63,14.42,65.34,4.27,18,8.23,36.27,7.82,55-.35,16.07-3.9,31.38-11.64,45.58a31.48,31.48,0,0,1-5.22,7.23A5.25,5.25,0,0,0,524.57,790Zm-30.44-78.15a1.48,1.48,0,0,0-1.55-1.36h0c-2.75-4.85-7.76-6.52-12.34-8.81-9.83-4.95-21.79-1.36-28.49,6-7.38,8.09-9.36,17.94-9.67,28.3-.56,19,3.85,36.49,16.37,51.31,4.1,4.85,8.6,9.49,15.08,11.12,4.41,1.1,9,2.12,13.23-.67l1.22-.1a8.82,8.82,0,0,0,4.6-2.26,37.53,37.53,0,0,0,12.66-18.72c3.64-11.48,3.58-23,1.74-34.62a73,73,0,0,0-8.92-24.66C497.39,715,495.74,713.45,494.13,711.83Z" transform="translate(-254.97 -162.39)" style="fill:#d7917d"/><path d="M552.48,550.35c-2.16-5.87-2.77-12.11-4.44-18.1-7.24-26-16.67-51-32.94-72.85-6.84-9.2-15-17.15-23.3-25.09-11.46-11-25.22-18.81-37.73-28.34-11.18-8.5-15.93-20.06-17-33.66-.82-10.18-1.85-20.35-3.18-30.47a31.27,31.27,0,0,0-5.29-13.46c-3.95-5.78-11.95-7.4-20-4.07-16.68,6.93-26.06,19.75-29.42,37.28-1.23,6.43-1.43,13.1.41,19.11,4.79,15.63,12.72,29.08,29.56,34.71,2.32.77,4.52,1.91,6.77,2.89a2,2,0,0,0,.14,1.84c-17.45-3.34-28.89-13.9-35.86-29.84-.44-1-.13-3.06-1.87-2.47-1.08.37-.73,2.36-.3,3.4,1.74,4.32,3,8.86,5.54,12.85a52.78,52.78,0,0,0,15.77,15.55l-1.32,1.6c-11.79-6.67-20.18-16.33-22-29.83-1.85-13.74-1.55-27.65,3.64-41,4.28-11,11.68-19.21,21.49-25.56,4.66-3,9.79-4.24,15.11-4.79,7.92-.82,14.44,4.11,17.71,12.6a69.14,69.14,0,0,1,4.15,21.21c.46,8.23,1.47,16.4,2.15,24.6.4,4.86,2.71,9.33,5.22,13.73,6.69,11.7,18.78,16.75,28.75,24.39,6.57,5,13.44,9.57,19.07,15.83,2.78,3.1,6.52,5.41,9.51,8.52a163.12,163.12,0,0,1,28.62,39.43,246.69,246.69,0,0,1,17.92,46.92c1.93,7.09,4.29,14,4.68,21.45C554,549.74,553.29,550.1,552.48,550.35Z" transform="translate(-254.97 -162.39)" style="fill:#d7917d"/><path d="M571.28,634c-2.18.56-2.1-1-2.27-2.39a229,229,0,0,1,1.71-67.15c2-11.89,5.12-23.57,8.27-35.23,3.9-14.4,7.33-28.93,11.24-43.33a171.18,171.18,0,0,0,5.63-57.41c-2.19-30.35-15.5-54.59-40.86-71.7-18-12.19-36.72-23.47-54.41-36.23a39.34,39.34,0,0,0-14.5-6.7c-1.33-.29-3.66-.08-2.86-2.33.69-2,2.82-1.26,4.25-.67a93.67,93.67,0,0,1,17.08,9c11.65,8,23,16.43,35.18,23.69,11,6.54,21.67,13.76,31,22.69A86.91,86.91,0,0,1,593.07,402c5.28,15.64,6.39,31.67,5.65,47.94a155.34,155.34,0,0,1-4.07,28.45c-2.19,9.27-3.87,18.7-6.76,27.74-2,6.25-3.73,12.64-5.47,18.91-1.61,5.84-3.07,11.87-4.39,17.86-2.08,9.48-4.54,18.88-5.75,28.54a254.08,254.08,0,0,0-.8,58.27c0,.21.29.39.44.58C571.7,631.56,572.49,633,571.28,634Z" transform="translate(-254.97 -162.39)" style="fill:#60a6c9"/><path d="M560.08,751.39c.94,1.06.25,2.14,0,3.18a80.69,80.69,0,0,1-17.9,32.93c-3.94,4.48-7.55,9.26-12.69,12.49-1.32.83-2.5,2.09-4.82,1.55,2.66-4.11,6.5-6.72,9.67-9.91,8.77-8.78,15.44-18.77,18.78-30.82a53.2,53.2,0,0,0,3.87-17c1-21.39-.85-42.58-4.06-63.72-1.94-12.78-3.77-25.6-6.62-38.2a163,163,0,0,0-13.36-37.79c-1.26-2.5-2.72-5-2.9-7.93,1.29.11,1.34,2.21,2.94,1.82,4.33,6.85,7.31,14.39,10,21.92a208.72,208.72,0,0,1,6.78,23.59c2.4,10.45,3.86,21,5.53,31.61,1.63,10.33,2.75,20.75,3.82,31.15,1.13,11,1.72,22.09.37,33.16,0,.36.46.78.71,1.18C560.82,744.19,558,747.77,560.08,751.39Z" transform="translate(-254.97 -162.39)" style="fill:#d7917d"/><path d="M472.24,187.69c-.06.55-.12,1.1-.19,1.65a66.25,66.25,0,0,0-6.62.9c-2,.46-3.95,1.32-6,1.72C463.12,188.9,467.59,188.05,472.24,187.69Z" transform="translate(-254.97 -162.39)" style="fill:#d7917d"/><path d="M452.17,253.72l-2.88-14.07C451.81,242.88,453,248.78,452.17,253.72Z" transform="translate(-254.97 -162.39)" style="fill:#d7917d"/><path d="M602,346.76c.91,3.9,0,7.58-1,11.25l-1.11-.19Q601,352.29,602,346.76Z" transform="translate(-254.97 -162.39)" style="fill:#d7917d"/><path d="M574.89,693.92l-1.4,0a35.09,35.09,0,0,1,1.81-9A19.9,19.9,0,0,1,574.89,693.92Z" transform="translate(-254.97 -162.39)" style="fill:#60a6c9"/><path d="M447.91,226.15a17.12,17.12,0,0,1-.42-9.81l1.32,9Z" transform="translate(-254.97 -162.39)" style="fill:#d7917d"/><path d="M594.48,571.17c-.26-3.06,1-5.73,2.31-8.37-.7,2.8.23,6-2.34,8.34Z" transform="translate(-254.97 -162.39)" style="fill:#60a6c9"/><path d="M359.59,372.27l-1.27-.08A16.35,16.35,0,0,1,360,364Z" transform="translate(-254.97 -162.39)" style="fill:#d7917d"/><path d="M504.08,283.15c-.31.36-.58.16-.84-.08.27-3.45.55-6.9.82-10.34A32.81,32.81,0,0,1,504.08,283.15Z" transform="translate(-254.97 -162.39)" style="fill:#60a6c9"/><path d="M543.72,294.42l-1.27.57-2.36-4.5A6.86,6.86,0,0,1,543.72,294.42Z" transform="translate(-254.97 -162.39)" style="fill:#d7917d"/><path d="M361.39,350.78c.75,1.74,0,3-.63,5.19C360.39,353.61,360,352.21,361.39,350.78Z" transform="translate(-254.97 -162.39)" style="fill:#d7917d"/><path d="M476.62,270.24l-.25.05-.25-.06c-.17-.84.5-2-.81-2.41a.85.85,0,0,1,.77-1A6.74,6.74,0,0,1,476.62,270.24Z" transform="translate(-254.97 -162.39)" style="fill:#60a6c9"/><path d="M482.83,285.6h1.26c.31.64.71,1.65-.1,1.79S483,286.39,482.83,285.6Z" transform="translate(-254.97 -162.39)" style="fill:#d7917d"/><path d="M427.4,238c.54.76.37,1.3-.52,1.6A1.1,1.1,0,0,1,427.4,238Z" transform="translate(-254.97 -162.39)" style="fill:#d7917d"/><path d="M447.91,226.15l.9-.79.6,2.71-.85.69C448.34,227.89,448.13,227,447.91,226.15Z" transform="translate(-254.97 -162.39)" style="fill:#f2f3f3"/><path d="M431.94,503.35c-.55-.42-1.4-1-.7-1.58.54-.45,1,.51,1.28,1.07Z" transform="translate(-254.97 -162.39)" style="fill:#f6f8f6"/><path d="M432.87,504.8l-.93-1.45.58-.51,1.24,1.14Z" transform="translate(-254.97 -162.39)" style="fill:#f6f8f6"/><path d="M447.86,288.2c-.36.15-.76.57-1,0-.07-.15.28-.48.44-.72Z" transform="translate(-254.97 -162.39)" style="fill:#f2f3f3"/><path d="M433.76,504c.37.43.8.91.1,1.35-.46.28-.8-.09-1-.53Z" transform="translate(-254.97 -162.39)" style="fill:#f6f8f6"/><path d="M366.15,195.77l-.57-.3.61.29Z" transform="translate(-254.97 -162.39)" style="fill:#f6f8f6"/><path d="M364.63,196.78c-.14-.64-.09-1.08.75-.71C365.13,196.32,364.88,196.55,364.63,196.78Z" transform="translate(-254.97 -162.39)" style="fill:#f6f8f6"/><path d="M421.23,260.65l.23-.25-.27.2Z" transform="translate(-254.97 -162.39)" style="fill:#d7917d"/><polygon points="338.15 212.45 338.4 212.35 338.36 212.61 338.15 212.45" style="fill:#f2f3f3"/><path d="M482.56,291l.39-.47.24.21-.6.15A1,1,0,0,0,482.56,291Z" transform="translate(-254.97 -162.39)" style="fill:#f2f3f3"/><path d="M308.76,589.08l-.12.3.14-.28Z" transform="translate(-254.97 -162.39)" style="fill:#f2f3f3"/><path d="M371.66,412.26c-3.63-7.44-4.6-15.53-4.94-23.57-.68-16,1.37-31.68,7.54-46.51,7.47-17.93,20.6-29.42,39.89-33.73A41.24,41.24,0,0,1,430,307.7c10.73,1.76,15.93,9.25,18.81,18.92,2.12,7.13,3.74,14.4,7.35,21.05A46.12,46.12,0,0,0,473.8,365.8c7.28,4.24,15.05,7.69,22.11,12.26a90,90,0,0,1,21.74,20.27,152.27,152.27,0,0,1,15.84,24.21A109.41,109.41,0,0,1,541,440c.43,1.39.93,3-.76,3.46-1.38.38-2.06-1.36-2.33-2.42-3-11.49-8.89-21.5-15.31-31.24-10.48-15.89-23.67-28.91-41.31-36.64-11.15-4.89-19.74-12.69-27.34-21.86-.5-.59-.11-1.82-1.82-2-.25,4,.72,7.94,1.71,11.59,3.08,11.41,8.82,21.4,16.37,30.62,7.7,9.41,16.21,18,24.27,27.09,12.1,13.6,24.12,27.31,34,42.69a17.55,17.55,0,0,1,1.06,1.54c.37.72,1.29,1.58.28,2.27a1.72,1.72,0,0,1-2.29-.72c-2-2.81-4.12-5.56-6.12-8.35a372,372,0,0,0-24.57-30.48c-11.46-12.89-24.16-24.71-33.94-39.05-6.27-9.18-10.9-19-12.56-30.23-1.4-9.48-2.16-19.05-4.23-28.44-2.46-11.21-10-18.07-21.49-17.75-20.53.56-36.43,9.41-45.45,28.45-10.47,22.11-12.6,45.16-6.64,68.92.42,1.66,1.73,3.11,1.22,5C373.1,412.28,372.43,411.55,371.66,412.26Z" transform="translate(-254.97 -162.39)" style="fill:#d7917d"/><path d="M570.43,464.79c-.35,20.58-2.73,41-4.22,61.53-.37,5-.24,10-.33,15,0,.88,0,1.75,0,2.63,0,1.08.13,2.58-1.35,2.57-1.18,0-1.2-1.43-1.2-2.4,0-5.62-.23-11.26.13-16.86.91-13.94,1.85-27.88,3.25-41.77a245.17,245.17,0,0,0,.87-33.29c-.92-26.66-13.06-47.58-33.3-64.28-13.77-11.35-29.76-19-45.28-27.44-9.66-5.25-18.25-11.76-25.08-20.34-4-5-6-11.13-8.36-17-2.81-6.88-7.44-11.63-14.51-14-1.23-.41-2.69-1.15-2.18-2.51.63-1.66,2.05-.53,3.15-.11,9.87,3.82,15.3,11.61,18.41,21.17,3.53,10.83,11.11,18.29,20,24.58,10.69,7.57,22.72,12.87,34.14,19.19a122,122,0,0,1,44.21,40.87c4.13,6.4,6.71,13.78,8.74,21.3C570.27,443.91,570.63,454.3,570.43,464.79Z" transform="translate(-254.97 -162.39)" style="fill:#60a6c9"/><path d="M582.33,437.51c-1.69,4.18,1.1,7.9,1.27,11.94a171.05,171.05,0,0,1-2,32.45c-1.43,9.49-3.7,18.82-5.83,28.16a13.42,13.42,0,0,1-.71,2.14c-.49,1.17-.5,3.34-2.28,2.72-1.6-.55-.55-2.41-.22-3.63,5.13-19.49,8.94-39.16,8.32-59.43a132.8,132.8,0,0,0-9.91-46.17c-6.72-16.6-19.47-27.36-34.63-35.2-21-10.85-39.09-25.22-56-41.42-4-3.87-7.62-8.21-12.2-11.54-1.44-1-3.15-1.45-4.52-2.52-.77-.6-1.87-1.17-1.08-2.36.66-1,1.6-.34,2.36,0a32.48,32.48,0,0,1,8.71,6.39c12,12,24.34,23.6,38,33.67,7.76,5.7,16.22,10.22,24.52,15,11.27,6.52,22.17,13.51,29.9,24.39,8,11.31,12,24.2,14.74,37.59C581.3,432.3,581.81,434.87,582.33,437.51Z" transform="translate(-254.97 -162.39)" style="fill:#60a6c9"/><path d="M371.66,412.26c.77-.71,1.44,0,2.15.15,6.63,17.7,19.28,29.79,35.64,38.5,11,5.87,22.49,10.78,33.88,15.87C459.48,474,474,483.35,485,497.54c6.58,8.49,10.73,18.28,14.67,28.1,6.79,16.92,14.7,33.31,22.61,49.71,3.37,7,6.68,14,10,21.06a1,1,0,0,0,.56,1.2.6.6,0,0,0,.09.37c-1.6.39-1.65-1.71-2.94-1.82l-.33-.7a2.26,2.26,0,0,0-1.15-2c-8.91-18.54-18.12-36.94-26.39-55.79-3.3-7.54-6.38-15.18-9.63-22.75-7.88-18.38-21.67-31.14-38.95-40.47-14.28-7.72-29.53-13.41-43.93-20.91-14-7.27-25.55-16.95-33.33-30.78C374.46,419.41,373.2,415.75,371.66,412.26Z" transform="translate(-254.97 -162.39)" style="fill:#fff;stroke:#fff;stroke-miterlimit:10"/><path d="M552.62,722.57c0,6.6.16,13.21-.14,19.8-.37,8.23-1.66,16.43-4.84,24-3.88,9.26-8.92,17.93-16.25,25.05-3.39,3.29-6.55,6.79-9.71,10.31-4.34,4.83-10.15,7.46-16.32,9-2.32.59-4.62,2.09-7.24,1.2.12-.64.23-1.27.34-1.91,7.41-2.19,14.68-4.79,20.64-9.88,4-3.43,8.09-6.93,11-11.45l0-.08c2.46-.57,3.41-2.63,4.49-4.56a59.34,59.34,0,0,0,13.32-28.33c3.54-20.74,1.71-41.48-1-62.2-1.94-14.69-3.73-29.39-6.41-44a231.54,231.54,0,0,0-9.29-33.82c-.16-.47-.34-.94-.46-1.42-.28-1.11-1.44-2.57.29-3.18,1.4-.49,1.67,1.1,2.08,2.11A182,182,0,0,1,543.44,651c1.93,11.29,3.91,22.57,5.58,33.89,1,7,1.55,14.11,2.29,21.17.62,4,.12,8.06,1.13,12Z" transform="translate(-254.97 -162.39)" style="fill:#d7917d"/><path d="M550.19,492.43c-.2,1.64.32,3-1,3.24-1.51.23-1.64-1.3-1.87-2.33a164.82,164.82,0,0,0-5-18.75,174,174,0,0,0-23-44.11,212.1,212.1,0,0,0-35.94-38.76c-4.06-3.45-8.44-6.54-12.8-9.6-1.05-.73-2.6-1-1.81-2.56s2.38-.63,3.25,0c4,2.88,8,5.83,11.79,9A190,190,0,0,1,510,414.24c10.13,12.2,19.42,24.94,26.23,39.39,2.26,4.8,4.78,9.49,6.77,14.42C546.28,476.15,547.69,484.78,550.19,492.43Z" transform="translate(-254.97 -162.39)" style="fill:#d7917d"/><path d="M558.53,631.83c-.09-.75-.17-1.5-.26-2.24a11.14,11.14,0,0,0-.77-5.2,428.2,428.2,0,0,0-13.49-75c-1.4-5-2.81-10.08-4.13-15.14-.25-1-1.28-2.44.3-2.86s1.48,1.34,1.78,2.33c6.35,21.55,12.21,43.21,14.9,65.59.69,5.81,2.09,11.53,1.71,17.44-.56,5.14,1.81,10,1.3,15.14-.15,1.49.78,3.33-1.17,4.36,0-1.22-.07-2.44-.11-3.66,0-.08.11-.18.09-.26A3.17,3.17,0,0,0,558.53,631.83Z" transform="translate(-254.97 -162.39)" style="fill:#fff;stroke:#fff;stroke-miterlimit:10"/><path d="M558.7,636.25c1.95-1,1-2.87,1.17-4.36.51-5.12-1.86-10-1.3-15.14l2.12,1.64c.7-3.77-.7-8,.51-12.1,2,1,1.32,2.62,1.34,3.9q.21,16.29.24,32.58a55.66,55.66,0,0,0,.88,9.29q.08,5,.17,10a2,2,0,0,1-1.73-.92c.26-4.93-1.18-9.63-2.06-14.4C559.61,643.2,558.21,639.85,558.7,636.25Z" transform="translate(-254.97 -162.39)" style="fill:#60a6c9"/><path d="M552.48,550.35c.81-.25,1.51-.61,1.56-1.59,2.14,7.81,3,15.85,4.12,23.82.87,5.9,1.62,11.82,2.32,17.75.11,1,.78,2.68-.75,2.85s-1.06-1.63-1.27-2.59C555.59,577.3,554.19,563.8,552.48,550.35Z" transform="translate(-254.97 -162.39)" style="fill:#60a6c9"/><path d="M558,542.76c-1.36-2.08-.92-4.49-1-6.79,0-.67.34-1.29,1.06-1.25s1,.69,1,1.35c0,2.18,0,4.36,0,6.54Z" transform="translate(-254.97 -162.39)" style="fill:#60a6c9"/><path d="M540.18,410.28c-1-.65-2.21-1.31-2.19-2.89,0-.77.65-1,1.28-1,1.61.23,2.1,1.28,2.1,2.82C541.37,410.13,541,410.3,540.18,410.28Z" transform="translate(-254.97 -162.39)" style="fill:#60a6c9"/><path d="M559.48,506.09c0,1.11-.17,1.8-1.16,1.76-1.52-.07-1.25-1.27-1.26-2.2,0-.72.05-1.68,1.06-1.59C559.48,504.17,559.15,505.51,559.48,506.09Z" transform="translate(-254.97 -162.39)" style="fill:#60a6c9"/><path d="M558.54,482.06c1.22.09,1.25.9,1.21,1.61,0,.89.45,2.16-1,2.37-1,.14-1.18-.69-1.07-1.49S557.57,482.57,558.54,482.06Z" transform="translate(-254.97 -162.39)" style="fill:#60a6c9"/><path d="M528.55,593.42a2.26,2.26,0,0,1,1.15,2C528.39,595.31,528.57,594.3,528.55,593.42Z" transform="translate(-254.97 -162.39)" style="fill:#d7917d"/><path d="M500,796l2.11.4C501.27,797,500.54,797,500,796Z" transform="translate(-254.97 -162.39)" style="fill:#f2f3f3"/><path d="M558.53,631.83a3.17,3.17,0,0,1,.15.5c0,.08,0,.18-.09.26C558,632.39,558,632.14,558.53,631.83Z" transform="translate(-254.97 -162.39)" style="fill:#f2f3f3"/><path d="M532.88,597.61a1,1,0,0,1-.56-1.2A1,1,0,0,1,532.88,597.61Z" transform="translate(-254.97 -162.39)" style="fill:#d7917d"/><path d="M504.15,795.24V795l.28-.11A1.84,1.84,0,0,1,504.15,795.24Z" transform="translate(-254.97 -162.39)" style="fill:#f2f3f3"/><path d="M503.15,796.06c.06-.3.23-.42.51-.34A1.75,1.75,0,0,1,503.15,796.06Z" transform="translate(-254.97 -162.39)" style="fill:#f2f3f3"/><path d="M498.46,810.09c-.11.64-.22,1.27-.34,1.91-7,1.69-14,3.74-21.29,3.57-4.71-.1-9.29-1.22-13.84-2.31-.81-.19-2.37-.51-1.88-1.77s1.62-.27,2.52,0a52.66,52.66,0,0,0,20.26,1.63c-4.8-.77-9.58-1.54-14.26-2.74-21.87-5.62-34.73-20.91-43.17-40.73-9-21.29-10-43.59-7.91-66.24,2.15-23.77,6.32-47.29,9-71,.1-.9-.17-2.44,1.21-2.32,1.84.16,1.3,1.88,1.16,3-1.71,13-3.49,26-5.23,39-2.39,18-4.71,35.91-4.5,54.1.1,9.16.64,18.51,3.09,27.06,4.91,17.13,11.71,33.57,26.5,45.29,9.44,7.5,20.27,10.43,31.83,11.68C487.22,810.81,492.84,810.2,498.46,810.09Z" transform="translate(-254.97 -162.39)" style="fill:#fff;stroke:#fff;stroke-miterlimit:10"/><path d="M387.11,293.75c-5.53.38-10.64,2.21-12.77,8.68-.24.72-.56,1.53-1.5,1.24s-1-1.12-.75-2.11c1.62-6.17,11.68-11.59,17.93-9.65.77.24,1.5.47,1.37,1.39-.12.77-.83.77-1.48.7S388.43,293.87,387.11,293.75Z" transform="translate(-254.97 -162.39)" style="fill:#fff"/><path d="M472.47,238.13c-8.93.89-19.31-8.92-19.46-18.23-.24-15,9.89-20.93,18.78-21.76,9.56-.89,21.34,9.75,20.77,20.52C492,229.14,483.47,238.71,472.47,238.13Zm.33-37c-9.8-.26-17,7.28-17.25,18.33-.19,7.06,7.39,15.85,16.09,15.89a17.14,17.14,0,0,0,17.75-16.76C489.86,208.62,481.68,201.52,472.8,201.16Z" transform="translate(-254.97 -162.39)" style="fill:#d7917d"/><path d="M584,333.23c3.86,5.18,12,6.48,16.58.53,5.61-7.33,6.45-18.44,1.54-26-5.28-8.15-14.85-8.32-20.33-.36-4.71,6.82-4.4,17.05.72,23.75-.46,1.51-1,2.24-2.36.59-6.95-8.85-4.22-25.83,5.55-30.79,5.93-3,12.49-1.53,17,4a23.82,23.82,0,0,1-.48,30c-.52.61-1.8,1-1.06,2.28l.06-.07c-.67-1-1.36-.14-1.81.14-6.48,4-10.81,3.54-16.07-1.89-.56-.58-1.44-1-1.53-2.2Z" transform="translate(-254.97 -162.39)" style="fill:#fff;stroke:#fff;stroke-miterlimit:10"/><path d="M653.87,273.43c-9.61-.08-16.86-7.35-16.76-16.79.1-10,7.45-17.52,17-17.49s17.65,7.85,17.62,17.1m-8.18,11.38c2.2-1.85,4.26-3.79,4.34-7,0-.25.09-.49.13-.74a6.76,6.76,0,0,0,0-7.67c-1.67-7.57-9.15-11.68-17.95-9.87-5.28,1.08-10.27,6.67-10.7,12-.53,6.53,3.62,13.24,8.78,15.5C654,272.4,658.81,270.94,663.55,267.63Z" transform="translate(-254.97 -162.39)" style="fill:#d7917d"/><path d="M450.26,744.75c-1.19,2-.49,6.23-5,4.27,2.64-2.62,1.8-6.17,2.16-9.27a42.36,42.36,0,0,1,8.05-20.49c3.85-5.26,11.41-7.18,16.29-4.38,1,.56,2.29,1.13,1.66,2.45s-1.92.69-2.94.24c-5-2.23-8.6-1.76-12,2.34-3.83,4.62-6.9,9.75-7.4,16l.09.09c-.65.36-.59.94-.48,1.54Z" transform="translate(-254.97 -162.39)" style="fill:#d7917d"/><path d="M451.56,740.19l0-.06Z" transform="translate(-254.97 -162.39)" style="fill:#d7917d"/></svg>